<?xml version="1.0" encoding="UTF-8"?>
<!--Generator: Apple Native CoreSVG 360-->
<!DOCTYPE svg
PUBLIC "-//W3C//DTD SVG 1.1//EN"
       "http://www.w3.org/Graphics/SVG/1.1/DTD/svg11.dtd">
<svg version="1.1" xmlns="http://www.w3.org/2000/svg" xmlns:xlink="http://www.w3.org/1999/xlink" viewBox="0 0 4208.42 2629.2">
 <g>
  <rect height="2629.2" opacity="0" width="4208.42" x="0" y="0"/>
  <path d="M821.228 2626.71C1273.94 2626.71 1641.17 2259.13 1641.17 1806.77C1641.17 1353.08 1274.92 986.165 821.228 986.165C366.338 986.165 0 1353.08 0 1806.77C0 2259.8 367.89 2626.71 821.228 2626.71ZM821.228 2410.88C485.773 2410.88 217.124 2142.23 217.124 1806.77C217.124 1472.91 487.06 1202.98 821.228 1202.98C1155.09 1202.98 1425.02 1473.58 1425.02 1806.77C1425.02 2140.94 1155.09 2410.88 821.228 2410.88ZM3389.45 2626.71C3841.86 2626.71 4208.42 2259.8 4208.42 1806.77C4208.42 1353.74 3842.17 986.831 3389.45 986.831C2935.14 986.831 2567.25 1353.74 2567.25 1806.77C2567.25 2260.46 2935.14 2626.71 3389.45 2626.71ZM3389.45 2410.88C3054 2410.88 2784.37 2142.89 2784.37 1806.77C2784.37 1473.58 3054.31 1202.98 3389.45 1202.98C3722.33 1202.98 3992.27 1474.25 3992.27 1806.77C3992.27 2140.94 3722.33 2410.88 3389.45 2410.88ZM2179.85 107.275C2179.85 165.905 2227.52 213.573 2286.82 213.573L2628.34 213.573C2640.02 213.573 2644.23 216.813 2647.47 225.202L3288.25 1853.85L3489.27 1785.54L2817.6 91.0778C2792.43 27.4296 2748.53 0 2670.95 0L2286.82 0C2227.52 0 2179.85 47.6677 2179.85 107.275ZM3009.41 936.377L3009.41 735.72L1633.1 929.038L1633.1 1129.7ZM1943.38 1930.91L1943.38 1730.26L841.2 1730.26L841.2 1930.91ZM2095.41 2086.19C2248.05 2086.19 2371.22 1963.68 2371.22 1812.32C2371.22 1659.98 2248.05 1536.81 2095.41 1536.81C1942.4 1536.81 1820.56 1658.39 1819.27 1812.01C1816.7 1962.7 1940.81 2086.19 2095.41 2086.19ZM2096.69 1906.96C2042.23 1906.96 1999.17 1864.88 1999.17 1814.23C1999.17 1760.38 2042.54 1716.04 2096.69 1716.04C2149.56 1716.04 2192 1759.1 2192 1814.23C2192 1865.5 2149.87 1906.96 2096.69 1906.96ZM821.228 1980.72C917.899 1980.72 995.841 1902.78 995.841 1806.77C995.841 1708.81 919.187 1632.16 821.228 1632.16C723.58 1632.16 648.258 1707.84 646.971 1806.46C645.684 1902.78 722.293 1980.72 821.228 1980.72ZM3389.45 1981.38C3486.12 1981.38 3563.09 1903.44 3563.09 1806.77C3563.09 1709.48 3487.1 1632.83 3389.45 1632.83C3291.49 1632.83 3215.51 1708.5 3214.22 1806.46C3212.93 1903.44 3290.52 1981.38 3389.45 1981.38ZM2053.51 1611.73L2232.2 1713.54L3045.7 836.967L2794.4 827.643ZM731.932 1748.44L909.376 1849.28L1680.5 1049.5L1507.76 933.52ZM1910.45 1733.21L2086.65 1606.32L1498.95 518.931L1291.5 564.024ZM1040.4 492.923C1040.4 552.53 1087.76 600.198 1147.37 600.198L1686.7 600.198C1746 600.198 1793.67 552.53 1793.67 492.923C1793.67 434.959 1745.33 386.625 1686.7 386.625L1147.37 386.625C1088.74 386.625 1040.4 434.959 1040.4 492.923Z" fill="black" fill-opacity="0.85"/>
 </g>
</svg>
