<?xml version="1.0" encoding="UTF-8"?>
<!--Generator: Apple Native CoreSVG 360-->
<!DOCTYPE svg
PUBLIC "-//W3C//DTD SVG 1.1//EN"
       "http://www.w3.org/Graphics/SVG/1.1/DTD/svg11.dtd">
<svg version="1.1" xmlns="http://www.w3.org/2000/svg" xmlns:xlink="http://www.w3.org/1999/xlink" viewBox="0 0 4075.2 2520.51">
 <g>
  <rect height="2520.51" opacity="0" width="4075.2" x="0" y="0"/>
  <path d="M792.969 2520.51C1230.47 2520.51 1584.96 2165.04 1584.96 1728.52C1584.96 1290.04 1231.45 935.547 792.969 935.547C355.469 935.547 0 1290.04 0 1728.52C0 2166.02 355.469 2520.51 792.969 2520.51ZM792.969 2351.56C447.266 2351.56 169.922 2074.22 169.922 1728.52C169.922 1383.79 448.242 1105.47 792.969 1105.47C1137.7 1105.47 1416.02 1384.77 1416.02 1728.52C1416.02 2073.24 1137.7 2351.56 792.969 2351.56ZM3284.18 2520.51C3721.68 2520.51 4075.2 2166.02 4075.2 1728.52C4075.2 1291.02 3721.68 936.523 3284.18 936.523C2845.7 936.523 2490.23 1291.02 2490.23 1728.52C2490.23 2166.99 2845.7 2520.51 3284.18 2520.51ZM3284.18 2351.56C2938.48 2351.56 2660.16 2075.2 2660.16 1728.52C2660.16 1384.77 2938.48 1105.47 3284.18 1105.47C3627.93 1105.47 3906.25 1385.74 3906.25 1728.52C3906.25 2073.24 3627.93 2351.56 3284.18 2351.56ZM2156.25 83.9844C2156.25 129.883 2193.36 166.992 2240.23 166.992L2576.17 166.992C2586.91 166.992 2590.82 169.922 2593.75 176.758L3197.27 1746.09L3354.49 1692.38L2727.54 76.1719C2707.03 22.4609 2670.9 0 2604.49 0L2240.23 0C2193.36 0 2156.25 37.1094 2156.25 83.9844ZM2927.73 838.867L2927.73 682.617L1591.8 881.836L1591.8 1038.09ZM1896.48 1828.12L1896.48 1671.88L808.594 1671.88L808.594 1828.12ZM2041.99 1983.4C2180.66 1983.4 2292.97 1872.07 2292.97 1734.38C2292.97 1595.7 2180.66 1483.4 2041.99 1483.4C1902.34 1483.4 1791.99 1594.73 1791.02 1734.38C1789.06 1871.09 1901.37 1983.4 2041.99 1983.4ZM2042.97 1833.98C1986.33 1833.98 1941.41 1790.04 1941.41 1735.35C1941.41 1678.71 1986.33 1632.81 2042.97 1632.81C2098.63 1632.81 2143.55 1677.73 2143.55 1735.35C2143.55 1790.04 2098.63 1833.98 2042.97 1833.98ZM792.969 1877.93C875.977 1877.93 943.359 1810.55 943.359 1728.52C943.359 1644.53 876.953 1578.12 792.969 1578.12C708.984 1578.12 644.531 1643.55 643.555 1728.52C642.578 1810.55 708.008 1877.93 792.969 1877.93ZM3284.18 1878.91C3367.19 1878.91 3433.59 1811.52 3433.59 1728.52C3433.59 1645.51 3368.16 1579.1 3284.18 1579.1C3200.2 1579.1 3134.77 1644.53 3133.79 1728.52C3132.81 1811.52 3199.22 1878.91 3284.18 1878.91ZM2022.46 1539.06L2160.16 1619.14L2933.59 777.344L2743.16 763.672ZM728.516 1668.95L866.211 1748.05L1623.05 982.422L1493.16 884.766ZM1875.98 1641.6L2013.67 1542.97L1443.36 479.492L1281.25 514.648ZM1054.69 460.938C1054.69 507.812 1091.8 544.922 1138.67 544.922L1616.21 544.922C1663.09 544.922 1700.2 507.812 1700.2 460.938C1700.2 416.016 1662.11 377.93 1616.21 377.93L1138.67 377.93C1092.77 377.93 1054.69 416.016 1054.69 460.938Z" fill="white" fill-opacity="0.85"/>
 </g>
</svg>
