<?xml version="1.0" encoding="UTF-8"?>
<!--Generator: Apple Native CoreSVG 360-->
<!DOCTYPE svg
PUBLIC "-//W3C//DTD SVG 1.1//EN"
       "http://www.w3.org/Graphics/SVG/1.1/DTD/svg11.dtd">
<svg version="1.1" xmlns="http://www.w3.org/2000/svg" xmlns:xlink="http://www.w3.org/1999/xlink" viewBox="0 0 2711.91 2719.73">
 <g>
  <rect height="2719.73" opacity="0" width="2711.91" x="0" y="0"/>
  <path d="M1355.47 469.727C1407.23 469.727 1448.24 427.734 1448.24 376.953L1448.24 92.7734C1448.24 41.9922 1407.23 0 1355.47 0C1304.69 0 1263.67 41.9922 1263.67 92.7734L1263.67 376.953C1263.67 427.734 1304.69 469.727 1355.47 469.727ZM1983.4 731.445C2019.53 766.602 2078.12 768.555 2115.23 731.445L2316.41 530.273C2352.54 494.141 2351.56 434.57 2316.41 398.438C2280.27 363.281 2221.68 362.305 2185.55 398.438L1983.4 600.586C1947.27 636.719 1948.24 695.312 1983.4 731.445ZM2243.16 1359.38C2243.16 1410.16 2285.16 1451.17 2335.94 1451.17L2619.14 1451.17C2669.92 1451.17 2711.91 1410.16 2711.91 1359.38C2711.91 1308.59 2669.92 1266.6 2619.14 1266.6L2335.94 1266.6C2285.16 1266.6 2243.16 1308.59 2243.16 1359.38ZM1983.4 1987.3C1948.24 2023.44 1947.27 2083.01 1983.4 2118.16L2185.55 2320.31C2221.68 2356.45 2280.27 2354.49 2316.41 2319.34C2351.56 2283.2 2352.54 2224.61 2316.41 2189.45L2114.26 1987.3C2078.12 1952.15 2019.53 1952.15 1983.4 1987.3ZM1355.47 2249.02C1304.69 2249.02 1263.67 2290.04 1263.67 2340.82L1263.67 2625C1263.67 2676.76 1304.69 2717.77 1355.47 2717.77C1407.23 2717.77 1448.24 2676.76 1448.24 2625L1448.24 2340.82C1448.24 2290.04 1407.23 2249.02 1355.47 2249.02ZM728.516 1987.3C692.383 1952.15 632.812 1952.15 596.68 1987.3L395.508 2188.48C359.375 2223.63 360.352 2282.23 394.531 2318.36C430.664 2353.52 490.234 2355.47 525.391 2319.34L727.539 2118.16C762.695 2083.01 762.695 2023.44 728.516 1987.3ZM467.773 1359.38C467.773 1308.59 426.758 1266.6 375.977 1266.6L92.7734 1266.6C41.9922 1266.6 0 1308.59 0 1359.38C0 1410.16 41.9922 1451.17 92.7734 1451.17L375.977 1451.17C426.758 1451.17 467.773 1410.16 467.773 1359.38ZM727.539 731.445C762.695 696.289 762.695 635.742 728.516 600.586L526.367 398.438C492.188 364.258 432.617 363.281 396.484 398.438C361.328 434.57 360.352 494.141 395.508 529.297L596.68 731.445C632.812 767.578 691.406 766.602 727.539 731.445Z" fill="white" fill-opacity="0.85"/>
  <path d="M1355.47 1987.3C1702.15 1987.3 1984.38 1706.05 1984.38 1359.38C1984.38 1012.7 1702.15 730.469 1355.47 730.469C1008.79 730.469 727.539 1012.7 727.539 1359.38C727.539 1706.05 1008.79 1987.3 1355.47 1987.3ZM1355.47 1823.24C1098.63 1823.24 891.602 1616.21 891.602 1359.38C891.602 1101.56 1098.63 894.531 1355.47 894.531C1613.28 894.531 1820.31 1101.56 1820.31 1359.38C1820.31 1616.21 1613.28 1823.24 1355.47 1823.24Z" fill="white" fill-opacity="0.85"/>
 </g>
</svg>
